{
	"asset":{
		"generator":"Khronos glTF Blender I/O v3.5.30",
		"version":"2.0"
	},
	"scene":0,
	"scenes":[
		{
			"name":"Scene",
			"nodes":[
				0,
				1
			]
		}
	],
	"nodes":[
		{
			"mesh":0,
			"name":"Retro_TV",
			"rotation":[
				0.70710688829422,
				0,
				0,
				0.7071066498756409
			]
		},
		{
			"mesh":1,
			"name":"Cube"
		}
	],
	"materials":[
		{
			"doubleSided":true,
			"name":"Body",
			"pbrMetallicRoughness":{
				"baseColorFactor":[
					0.8000000715255737,
					0.14910006523132324,
					0,
					1
				],
				"metallicFactor":0,
				"roughnessFactor":0.5
			}
		},
		{
			"doubleSided":true,
			"name":"White",
			"pbrMetallicRoughness":{
				"baseColorFactor":[
					1,
					1,
					1,
					1
				],
				"metallicFactor":0,
				"roughnessFactor":0.5
			}
		},
		{
			"doubleSided":true,
			"name":"Front_",
			"pbrMetallicRoughness":{
				"baseColorFactor":[
					0.42750000953674316,
					0.42750000953674316,
					0.42750000953674316,
					1
				],
				"metallicFactor":0,
				"roughnessFactor":0.5
			}
		},
		{
			"doubleSided":true,
			"name":"Screen_mirror",
			"pbrMetallicRoughness":{
				"baseColorFactor":[
					0.007799999788403511,
					0.027499999850988388,
					0,
					1
				],
				"metallicFactor":0,
				"roughnessFactor":0.5
			}
		},
		{
			"doubleSided":true,
			"name":"Steel_Silver",
			"pbrMetallicRoughness":{
				"baseColorFactor":[
					0.7175999879837036,
					0.7175999879837036,
					0.7175999879837036,
					1
				],
				"metallicFactor":0,
				"roughnessFactor":0.5
			}
		},
		{
			"doubleSided":true,
			"name":"Black",
			"pbrMetallicRoughness":{
				"baseColorFactor":[
					0,
					0,
					0,
					1
				],
				"metallicFactor":0,
				"roughnessFactor":0.5
			}
		},
		{
			"doubleSided":true,
			"name":"Material",
			"pbrMetallicRoughness":{
				"baseColorFactor":[
					0.800000011920929,
					0.800000011920929,
					0.800000011920929,
					1
				],
				"metallicFactor":0,
				"roughnessFactor":0.5
			}
		}
	],
	"meshes":[
		{
			"name":"Retro_TV",
			"primitives":[
				{
					"attributes":{
						"POSITION":0,
						"TEXCOORD_0":1,
						"NORMAL":2
					},
					"indices":3,
					"material":0
				},
				{
					"attributes":{
						"POSITION":4,
						"TEXCOORD_0":5,
						"NORMAL":6
					},
					"indices":7,
					"material":1
				},
				{
					"attributes":{
						"POSITION":8,
						"TEXCOORD_0":9,
						"NORMAL":10
					},
					"indices":11,
					"material":2
				},
				{
					"attributes":{
						"POSITION":12,
						"TEXCOORD_0":13,
						"NORMAL":14
					},
					"indices":15,
					"material":3
				},
				{
					"attributes":{
						"POSITION":16,
						"TEXCOORD_0":17,
						"NORMAL":18
					},
					"indices":19,
					"material":4
				},
				{
					"attributes":{
						"POSITION":20,
						"TEXCOORD_0":21,
						"NORMAL":22
					},
					"indices":23,
					"material":5
				}
			]
		},
		{
			"name":"Cube",
			"primitives":[
				{
					"attributes":{
						"POSITION":24,
						"NORMAL":25
					},
					"indices":26,
					"material":6
				}
			]
		}
	],
	"accessors":[
		{
			"bufferView":0,
			"componentType":5126,
			"count":311,
			"max":[
				57.34640121459961,
				29.60110092163086,
				13.849200248718262
			],
			"min":[
				-52.86140060424805,
				-41.91889953613281,
				-71.33049774169922
			],
			"type":"VEC3"
		},
		{
			"bufferView":1,
			"componentType":5126,
			"count":311,
			"type":"VEC2"
		},
		{
			"bufferView":2,
			"componentType":5126,
			"count":311,
			"type":"VEC3"
		},
		{
			"bufferView":3,
			"componentType":5123,
			"count":1410,
			"type":"SCALAR"
		},
		{
			"bufferView":4,
			"componentType":5126,
			"count":76,
			"max":[
				53.0630989074707,
				27.56879997253418,
				-2.1115000247955322
			],
			"min":[
				-48.6431999206543,
				26.897499084472656,
				-66.87680053710938
			],
			"type":"VEC3"
		},
		{
			"bufferView":5,
			"componentType":5126,
			"count":76,
			"type":"VEC2"
		},
		{
			"bufferView":6,
			"componentType":5126,
			"count":76,
			"type":"VEC3"
		},
		{
			"bufferView":7,
			"componentType":5123,
			"count":300,
			"type":"SCALAR"
		},
		{
			"bufferView":8,
			"componentType":5126,
			"count":235,
			"max":[
				51.356300354003906,
				28.2268009185791,
				-3.8173999786376953
			],
			"min":[
				-46.9364013671875,
				26.69890022277832,
				-65.1708984375
			],
			"type":"VEC3"
		},
		{
			"bufferView":9,
			"componentType":5126,
			"count":235,
			"type":"VEC2"
		},
		{
			"bufferView":10,
			"componentType":5126,
			"count":235,
			"type":"VEC3"
		},
		{
			"bufferView":11,
			"componentType":5123,
			"count":756,
			"type":"SCALAR"
		},
		{
			"bufferView":12,
			"componentType":5126,
			"count":45,
			"max":[
				12.969799995422363,
				25.872100830078125,
				-11.551899909973145
			],
			"min":[
				-39.43560028076172,
				24.258699417114258,
				-58.00410079956055
			],
			"type":"VEC3"
		},
		{
			"bufferView":13,
			"componentType":5126,
			"count":45,
			"type":"VEC2"
		},
		{
			"bufferView":14,
			"componentType":5126,
			"count":45,
			"type":"VEC3"
		},
		{
			"bufferView":15,
			"componentType":5123,
			"count":204,
			"type":"SCALAR"
		},
		{
			"bufferView":16,
			"componentType":5126,
			"count":400,
			"max":[
				46.507198333740234,
				30.032899856567383,
				-39.66790008544922
			],
			"min":[
				-14.7568998336792,
				-40.4630012512207,
				-132.97479248046875
			],
			"type":"VEC3"
		},
		{
			"bufferView":17,
			"componentType":5126,
			"count":400,
			"type":"VEC2"
		},
		{
			"bufferView":18,
			"componentType":5126,
			"count":400,
			"type":"VEC3"
		},
		{
			"bufferView":19,
			"componentType":5123,
			"count":1440,
			"type":"SCALAR"
		},
		{
			"bufferView":20,
			"componentType":5126,
			"count":512,
			"max":[
				53.75709915161133,
				29.251800537109375,
				16.858200073242188
			],
			"min":[
				-49.33720016479492,
				-26.023300170898438,
				-67.80789947509766
			],
			"type":"VEC3"
		},
		{
			"bufferView":21,
			"componentType":5126,
			"count":512,
			"type":"VEC2"
		},
		{
			"bufferView":22,
			"componentType":5126,
			"count":512,
			"type":"VEC3"
		},
		{
			"bufferView":23,
			"componentType":5123,
			"count":1332,
			"type":"SCALAR"
		},
		{
			"bufferView":24,
			"componentType":5126,
			"count":24,
			"max":[
				1.0000004768371582,
				1,
				1.0000005960464478
			],
			"min":[
				-1.0000003576278687,
				-1,
				-1.0000003576278687
			],
			"type":"VEC3"
		},
		{
			"bufferView":25,
			"componentType":5126,
			"count":24,
			"type":"VEC3"
		},
		{
			"bufferView":26,
			"componentType":5123,
			"count":36,
			"type":"SCALAR"
		}
	],
	"bufferViews":[
		{
			"buffer":0,
			"byteLength":3732,
			"byteOffset":0,
			"target":34962
		},
		{
			"buffer":0,
			"byteLength":2488,
			"byteOffset":3732,
			"target":34962
		},
		{
			"buffer":0,
			"byteLength":3732,
			"byteOffset":6220,
			"target":34962
		},
		{
			"buffer":0,
			"byteLength":2820,
			"byteOffset":9952,
			"target":34963
		},
		{
			"buffer":0,
			"byteLength":912,
			"byteOffset":12772,
			"target":34962
		},
		{
			"buffer":0,
			"byteLength":608,
			"byteOffset":13684,
			"target":34962
		},
		{
			"buffer":0,
			"byteLength":912,
			"byteOffset":14292,
			"target":34962
		},
		{
			"buffer":0,
			"byteLength":600,
			"byteOffset":15204,
			"target":34963
		},
		{
			"buffer":0,
			"byteLength":2820,
			"byteOffset":15804,
			"target":34962
		},
		{
			"buffer":0,
			"byteLength":1880,
			"byteOffset":18624,
			"target":34962
		},
		{
			"buffer":0,
			"byteLength":2820,
			"byteOffset":20504,
			"target":34962
		},
		{
			"buffer":0,
			"byteLength":1512,
			"byteOffset":23324,
			"target":34963
		},
		{
			"buffer":0,
			"byteLength":540,
			"byteOffset":24836,
			"target":34962
		},
		{
			"buffer":0,
			"byteLength":360,
			"byteOffset":25376,
			"target":34962
		},
		{
			"buffer":0,
			"byteLength":540,
			"byteOffset":25736,
			"target":34962
		},
		{
			"buffer":0,
			"byteLength":408,
			"byteOffset":26276,
			"target":34963
		},
		{
			"buffer":0,
			"byteLength":4800,
			"byteOffset":26684,
			"target":34962
		},
		{
			"buffer":0,
			"byteLength":3200,
			"byteOffset":31484,
			"target":34962
		},
		{
			"buffer":0,
			"byteLength":4800,
			"byteOffset":34684,
			"target":34962
		},
		{
			"buffer":0,
			"byteLength":2880,
			"byteOffset":39484,
			"target":34963
		},
		{
			"buffer":0,
			"byteLength":6144,
			"byteOffset":42364,
			"target":34962
		},
		{
			"buffer":0,
			"byteLength":4096,
			"byteOffset":48508,
			"target":34962
		},
		{
			"buffer":0,
			"byteLength":6144,
			"byteOffset":52604,
			"target":34962
		},
		{
			"buffer":0,
			"byteLength":2664,
			"byteOffset":58748,
			"target":34963
		},
		{
			"buffer":0,
			"byteLength":288,
			"byteOffset":61412,
			"target":34962
		},
		{
			"buffer":0,
			"byteLength":288,
			"byteOffset":61700,
			"target":34962
		},
		{
			"buffer":0,
			"byteLength":72,
			"byteOffset":61988,
			"target":34963
		}
	],
	"buffers":[
		{
			"byteLength":62060,
			"uri":"TV_model_ORIGINAL_3D.bin"
		}
	]
}
