{
	"asset":{
		"generator":"Khronos glTF Blender I/O v3.5.30",
		"version":"2.0"
	},
	"extensionsUsed":[
		"KHR_materials_specular",
		"KHR_materials_ior"
	],
	"scene":0,
	"scenes":[
		{
			"name":"Scene",
			"nodes":[
				0,
				1,
				2
			]
		}
	],
	"nodes":[
		{
			"mesh":0,
			"name":"Cube.003",
			"scale":[
				0.6082589030265808,
				0.11986962705850601,
				0.6082589030265808
			],
			"translation":[
				0.040425557643175125,
				2.270876169204712,
				0.040494322776794434
			]
		},
		{
			"mesh":1,
			"name":"Cube.002",
			"rotation":[
				0.04698886722326279,
				0.38679447770118713,
				0.11344116926193237,
				0.9139547944068909
			],
			"scale":[
				0.07592181861400604,
				0.7855327725410461,
				0.07685668021440506
			],
			"translation":[
				0.042375802993774414,
				1.3277878761291504,
				0.035219043493270874
			]
		},
		{
			"mesh":2,
			"name":"Cube",
			"scale":[
				0.8742984533309937,
				0.8742984533309937,
				0.8742984533309937
			],
			"translation":[
				0.040425557643175125,
				2.932614803314209,
				0.0009294017218053341
			]
		}
	],
	"materials":[
		{
			"doubleSided":true,
			"extensions":{
				"KHR_materials_specular":{
					"specularColorTexture":{
						"index":0
					}
				},
				"KHR_materials_ior":{
					"ior":1.4500000476837158
				}
			},
			"name":"FabricDenim003_3K",
			"normalTexture":{
				"index":1
			},
			"pbrMetallicRoughness":{
				"baseColorTexture":{
					"index":2
				},
				"metallicFactor":0,
				"metallicRoughnessTexture":{
					"index":3
				}
			}
		},
		{
			"doubleSided":true,
			"extensions":{
				"KHR_materials_specular":{
					"specularColorTexture":{
						"index":4
					}
				},
				"KHR_materials_ior":{
					"ior":1.4500000476837158
				}
			},
			"name":"WoodQuarteredChiffon001_6K",
			"normalTexture":{
				"index":5
			},
			"pbrMetallicRoughness":{
				"baseColorTexture":{
					"index":6
				},
				"metallicFactor":0,
				"metallicRoughnessTexture":{
					"index":7
				}
			}
		}
	],
	"meshes":[
		{
			"name":"Cube",
			"primitives":[
				{
					"attributes":{
						"COLOR_0":0,
						"POSITION":1,
						"TEXCOORD_0":2,
						"NORMAL":3
					},
					"indices":4,
					"material":0
				}
			]
		},
		{
			"name":"Cube.004",
			"primitives":[
				{
					"attributes":{
						"POSITION":5,
						"TEXCOORD_0":6,
						"NORMAL":7
					},
					"indices":8,
					"material":1
				}
			]
		},
		{
			"name":"Cube.001",
			"primitives":[
				{
					"attributes":{
						"POSITION":9,
						"TEXCOORD_0":10,
						"NORMAL":11
					},
					"indices":12,
					"material":0
				}
			]
		}
	],
	"textures":[
		{
			"sampler":0,
			"source":0
		},
		{
			"sampler":0,
			"source":1
		},
		{
			"sampler":0,
			"source":2
		},
		{
			"sampler":0,
			"source":3
		},
		{
			"sampler":0,
			"source":4
		},
		{
			"sampler":0,
			"source":5
		},
		{
			"sampler":0,
			"source":6
		},
		{
			"sampler":0,
			"source":7
		}
	],
	"images":[
		{
			"mimeType":"image/png",
			"name":"Image",
			"uri":"Image.png"
		},
		{
			"mimeType":"image/jpeg",
			"name":"FabricDenim003_DISP_3K",
			"uri":"FabricDenim003_DISP_3K.jpg"
		},
		{
			"mimeType":"image/png",
			"name":"a beautiful up close view of a orbital space habitat",
			"uri":"a%20beautiful%20up%20close%20view%20of%20a%20orbital%20space%20habitat.png"
		},
		{
			"mimeType":"image/png",
			"name":"FabricDenim003_GLOSS_3K",
			"uri":"FabricDenim003_GLOSS_3K.png"
		},
		{
			"mimeType":"image/png",
			"name":"Image",
			"uri":"Image-1.png"
		},
		{
			"mimeType":"image/png",
			"name":"WoodQuarteredChiffon001_NRM16_1K",
			"uri":"WoodQuarteredChiffon001_NRM16_1K.png"
		},
		{
			"mimeType":"image/jpeg",
			"name":"WoodQuarteredChiffon001_COL_1K",
			"uri":"WoodQuarteredChiffon001_COL_1K.jpg"
		},
		{
			"mimeType":"image/png",
			"name":"WoodQuarteredChiffon001_GLOSS_1K",
			"uri":"WoodQuarteredChiffon001_GLOSS_1K.png"
		}
	],
	"accessors":[
		{
			"bufferView":0,
			"componentType":5123,
			"count":6132,
			"normalized":true,
			"type":"VEC4"
		},
		{
			"bufferView":1,
			"componentType":5126,
			"count":6132,
			"max":[
				1.2851619720458984,
				1.1937631368637085,
				1.4811477661132812
			],
			"min":[
				-1.2851619720458984,
				-1.2583410739898682,
				-1.3164315223693848
			],
			"type":"VEC3"
		},
		{
			"bufferView":2,
			"componentType":5126,
			"count":6132,
			"type":"VEC2"
		},
		{
			"bufferView":3,
			"componentType":5126,
			"count":6132,
			"type":"VEC3"
		},
		{
			"bufferView":4,
			"componentType":5123,
			"count":33792,
			"type":"SCALAR"
		},
		{
			"bufferView":5,
			"componentType":5126,
			"count":233,
			"max":[
				9.538000106811523,
				1.0443389415740967,
				14.773512840270996
			],
			"min":[
				-19.2513427734375,
				-1.9086514711380005,
				-14.846174240112305
			],
			"type":"VEC3"
		},
		{
			"bufferView":6,
			"componentType":5126,
			"count":233,
			"type":"VEC2"
		},
		{
			"bufferView":7,
			"componentType":5126,
			"count":233,
			"type":"VEC3"
		},
		{
			"bufferView":8,
			"componentType":5123,
			"count":1080,
			"type":"SCALAR"
		},
		{
			"bufferView":9,
			"componentType":5126,
			"count":16308,
			"max":[
				0.9476040601730347,
				1.000379204750061,
				1
			],
			"min":[
				-0.9476306438446045,
				-1,
				-1.2608145475387573
			],
			"type":"VEC3"
		},
		{
			"bufferView":10,
			"componentType":5126,
			"count":16308,
			"type":"VEC2"
		},
		{
			"bufferView":11,
			"componentType":5126,
			"count":16308,
			"type":"VEC3"
		},
		{
			"bufferView":12,
			"componentType":5123,
			"count":95232,
			"type":"SCALAR"
		}
	],
	"bufferViews":[
		{
			"buffer":0,
			"byteLength":49056,
			"byteOffset":0,
			"target":34962
		},
		{
			"buffer":0,
			"byteLength":73584,
			"byteOffset":49056,
			"target":34962
		},
		{
			"buffer":0,
			"byteLength":49056,
			"byteOffset":122640,
			"target":34962
		},
		{
			"buffer":0,
			"byteLength":73584,
			"byteOffset":171696,
			"target":34962
		},
		{
			"buffer":0,
			"byteLength":67584,
			"byteOffset":245280,
			"target":34963
		},
		{
			"buffer":0,
			"byteLength":2796,
			"byteOffset":312864,
			"target":34962
		},
		{
			"buffer":0,
			"byteLength":1864,
			"byteOffset":315660,
			"target":34962
		},
		{
			"buffer":0,
			"byteLength":2796,
			"byteOffset":317524,
			"target":34962
		},
		{
			"buffer":0,
			"byteLength":2160,
			"byteOffset":320320,
			"target":34963
		},
		{
			"buffer":0,
			"byteLength":195696,
			"byteOffset":322480,
			"target":34962
		},
		{
			"buffer":0,
			"byteLength":130464,
			"byteOffset":518176,
			"target":34962
		},
		{
			"buffer":0,
			"byteLength":195696,
			"byteOffset":648640,
			"target":34962
		},
		{
			"buffer":0,
			"byteLength":190464,
			"byteOffset":844336,
			"target":34963
		}
	],
	"samplers":[
		{
			"magFilter":9729,
			"minFilter":9987
		}
	],
	"buffers":[
		{
			"byteLength":1034800,
			"uri":"Chair.bin"
		}
	]
}
